<svg xmlns="http://www.w3.org/2000/svg" class="az theme-light" viewBox="0 0 1345 820" width="1345" height="820" role="img" aria-label="RAG chat assistant on Azure OpenAI">
<title>RAG chat assistant on Azure OpenAI</title>
<style>.az{--bg:#ffffff;--fg:#000000;--muted:#545b64;--line:#232F3E;--halo:#ffffff;--badge:#000000;--badgeFg:#ffffff}
.az.theme-dark{--bg:#161E2D;--fg:#ffffff;--muted:#aab4c3;--line:#d5dbdb;--halo:#161E2D;--badge:#ffffff;--badgeFg:#000000}
.az .bg{fill:var(--bg)}
.az text{font-family:Arial,Helvetica,sans-serif;fill:var(--fg)}
.az .title{font-size:22px;font-weight:700}
.az .subtitle{font-size:13px;fill:var(--muted)}
.az .glabel,.az .nlabel,.az .elabel{font-size:12px}
.az .nsub{font-size:10.5px;fill:var(--muted)}
.az .elabel{paint-order:stroke;stroke:var(--halo);stroke-width:4px;stroke-linejoin:round}
.az .eline{stroke:var(--line)}
.az .arw{fill:none;stroke:var(--line);stroke-width:1.6}
.az .badge circle{fill:var(--badge)}.az .badge circle.hit{fill:transparent}.az .badge{cursor:help}.az .badge:hover circle:not(.hit){stroke:#ff9900;stroke-width:3}
.az .badge text{fill:var(--badgeFg);font-weight:700;font-size:12px}
.az .only-dark{display:none}.az.theme-dark .only-dark{display:inline}.az.theme-dark .only-light{display:none}
.az.theme-dark .grect[data-fill-dark="none"]{fill:none}
.az .dim{opacity:.18}.az .hl .eline{stroke-width:3}
.az .edge,.az .node{transition:opacity .12s}</style>
<defs><marker id="arw" viewBox="0 0 10 10" refX="9" refY="5" markerWidth="10" markerHeight="10" markerUnits="userSpaceOnUse" orient="auto-start-reverse"><path class="arw" d="M1.5 1.5 L8.5 5 L1.5 8.5"/></marker><symbol id="grp-Region" viewBox="0 0 18 18"><defs><radialGradient id="grp-Region__a2bc6f27-908e-42b4-896c-c166889dd643" cx="7.98" cy="6.94" r="6.17" gradientUnits="userSpaceOnUse"><stop offset="0.22" stop-color="#0078d4" /><stop offset="0.42" stop-color="#0075cf" /><stop offset="0.67" stop-color="#006dc0" /><stop offset="0.94" stop-color="#005ea7" /><stop offset="1" stop-color="#005ba1" /></radialGradient></defs><g id="grp-Region__f150c6ed-e5d7-4142-a557-808df36e72d2"><g><path d="M8.42,14.07h-.7a.26.26,0,0,0-.26.3c.15,1.56-.81,1.86-2.41,1.89a.26.26,0,0,0-.26.26V17a.27.27,0,0,0,.26.27h5.8a.27.27,0,0,0,.26-.27v-.47a.26.26,0,0,0-.26-.26c-1.58,0-2.34-.33-2.17-1.89A.26.26,0,0,0,8.42,14.07Z" fill="#ef7100" /><g><path d="M8.71,11A.85.85,0,0,1,9,10.79a.72.72,0,0,1,.29-.06.8.8,0,0,1,.3.06A1,1,0,0,1,9.8,11L8.59,9.75a.75.75,0,0,1,0-1.08.73.73,0,0,1,.54-.23.76.76,0,0,1,.54.23L10,9l.25.22.59.6a.77.77,0,0,0,1.08,0,.76.76,0,0,0,0-1.09l-.59-.59L11,7.76,9.15,6a.75.75,0,0,1,0-1.08.73.73,0,0,1,.54-.23.76.76,0,0,1,.54.23l.79.79a.77.77,0,0,1,.54-1.31.79.79,0,0,1,.54.22l2,2.05A6.18,6.18,0,0,0,8.6.77l.92.92a1,1,0,0,1,.28.68,1,1,0,0,1-1,1,.94.94,0,0,1-.68-.29l-.63-.62a1,1,0,0,0-1.64.68.93.93,0,0,0,.28.68L7.39,5a.94.94,0,0,1,.29.68.92.92,0,0,1-.29.68,1,1,0,0,1-.68.29A1,1,0,0,1,6,6.39L4.67,5a.91.91,0,0,1,0,.65,1,1,0,0,1-1,.71,1,1,0,0,1-.6-.28l1,1a.93.93,0,0,1,.28.68,1,1,0,0,1-.07.37,1,1,0,0,1-.52.52,1,1,0,0,1-.37.07.94.94,0,0,1-.37-.07.85.85,0,0,1-.31-.21l-.92-.92A6.18,6.18,0,0,0,9.57,12.9L8.71,12a.77.77,0,0,1,0-1.08Z" fill="url(#grp-Region__a2bc6f27-908e-42b4-896c-c166889dd643)" /><path d="M14.14,6.63l-2-2a.79.79,0,0,0-.54-.22.76.76,0,0,0-.54.22.76.76,0,0,0,0,1.09l-.79-.79a.76.76,0,0,0-.54-.23.73.73,0,0,0-.54.23A.75.75,0,0,0,9.15,6L11,7.76l.37.37.59.59a.76.76,0,0,1,0,1.09.77.77,0,0,1-1.08,0l-.59-.59L10,9l-.32-.32a.76.76,0,0,0-.54-.23.73.73,0,0,0-.54.23.75.75,0,0,0,0,1.08L9.79,11a.76.76,0,0,0-.54-.23.8.8,0,0,0-.54.23.77.77,0,0,0,0,1.08l.86.86a6.24,6.24,0,0,0,2.77-1.6,6.15,6.15,0,0,0,1.4-2.15A6,6,0,0,0,14.14,6.63ZM4.1,8.47a1.06,1.06,0,0,0,.21-.31,1,1,0,0,0,.07-.37.9.9,0,0,0-.07-.37A1,1,0,0,0,4.1,7.1l-1-1a1,1,0,0,0,.25.33,1.11,1.11,0,0,0,.37.2,1,1,0,0,0,.42,0,1,1,0,0,0,.39-.16.84.84,0,0,0,.28-.31A.79.79,0,0,0,5,5.8a1,1,0,0,0,0-.41A1,1,0,0,0,4.67,5L6,6.39a1,1,0,0,0,.68.29A1,1,0,0,0,7.39,5L6.16,3.79a1,1,0,0,1-.29-.68,1,1,0,0,1,1.65-.68l.63.62a.94.94,0,0,0,.68.29.92.92,0,0,0,.68-.29.92.92,0,0,0,.29-.68.94.94,0,0,0-.29-.68L8.6.77A6.19,6.19,0,0,0,1.82,7.55l.91.92a1,1,0,0,0,.32.21.94.94,0,0,0,.37.07,1,1,0,0,0,.37-.07A1.06,1.06,0,0,0,4.1,8.47Z" fill="#9cebff" /></g><path d="M8,15.16a8.14,8.14,0,0,1-5.82-2.41A.5.5,0,0,1,2,12.56a.54.54,0,0,1,0-.22.57.57,0,0,1,0-.22.46.46,0,0,1,.13-.18.46.46,0,0,1,.18-.13.57.57,0,0,1,.22,0,.54.54,0,0,1,.22,0,.5.5,0,0,1,.19.13,7.15,7.15,0,0,0,2.3,1.54A7,7,0,0,0,8,14a7,7,0,0,0,2.72-.53A7.15,7.15,0,0,0,13,11.94a7.09,7.09,0,0,0,0-10,.58.58,0,0,1-.17-.41A.54.54,0,0,1,13,1.1a.56.56,0,0,1,.4-.17.57.57,0,0,1,.41.17,8.24,8.24,0,0,1,0,11.65A8.17,8.17,0,0,1,8,15.16Z" fill="#faa21d" /></g></g></symbol><symbol id="svc-AI-Foundry" viewBox="0 0 18 18"><defs><linearGradient id="svc-AI-Foundry__uuid-5a7bd7fa-6937-44bd-a5ba-e23eddbb6d35" x1="10.91" y1="13.66" x2="13.62" y2="13.66" gradientTransform="translate(0 20) scale(1 -1)" gradientUnits="userSpaceOnUse"><stop offset="0" stop-color="#302ec9" /><stop offset=".12" stop-color="#151698" /><stop offset=".25" stop-color="#0a0b7e" /><stop offset=".43" stop-color="#090c7f" /><stop offset=".51" stop-color="#141698" /><stop offset=".61" stop-color="#282ac4" /><stop offset=".77" stop-color="#8e8ff4" /><stop offset=".85" stop-color="#a7a6f7" /><stop offset=".91" stop-color="#cacafb" /><stop offset="1" stop-color="#fff" /></linearGradient><linearGradient id="svc-AI-Foundry__uuid-a9b2ac78-bff0-475d-89df-2c97f2122f93" x1="12.26" y1="8.32" x2="12.26" y2="18.23" gradientTransform="translate(0 20) scale(1 -1)" gradientUnits="userSpaceOnUse"><stop offset=".02" stop-color="#201ba6" /><stop offset=".64" stop-color="#2d29c7" /><stop offset="1" stop-color="#201ba6" /></linearGradient><linearGradient id="svc-AI-Foundry__uuid-03b3b70c-1c8d-4b3f-9935-d9da2b20de2f" x1="14.19" y1="8.27" x2="14.19" y2="14.47" gradientTransform="translate(0 20) scale(1 -1)" gradientUnits="userSpaceOnUse"><stop offset="0" stop-color="#3530c3" /><stop offset=".5" stop-color="#6d71d1" /><stop offset=".97" stop-color="#c0bff5" /><stop offset="1" stop-color="#e3e4ff" /></linearGradient><linearGradient id="svc-AI-Foundry__uuid-cabc8ec9-3293-44b8-a33b-70823f583b30" x1="6.51" y1="3" x2="6.51" y2="19.15" gradientTransform="translate(0 20) scale(1 -1)" gradientUnits="userSpaceOnUse"><stop offset="0" stop-color="#302ec9" /><stop offset=".45" stop-color="#302ec9" /><stop offset=".95" stop-color="#cacafb" /><stop offset="1" stop-color="#7f7eaf" /></linearGradient></defs><path d="M11.96,11.68s.07-.1.07-.24v-3.87c0-.85.66-1.76,1.59-2.03-.06-.19-.64-2.11-.81-2.65-.17-.56-.67-1.9-1.29-1.9,0,0,0,0-.01,0h0s-.09.05-.13.13c-.32.58-.46,3.02-.46,4.84v2.26c.27.97.91,3.22.96,3.35,0,0,.05.1.09.1h0Z" fill="url(#svc-AI-Foundry__uuid-5a7bd7fa-6937-44bd-a5ba-e23eddbb6d35)" /><path d="M11.96,11.68s.07-.1.07-.24v-3.87c0-.85.66-1.76,1.59-2.03-.06-.19-.64-2.11-.81-2.65-.17-.56-.67-1.9-1.29-1.9,0,0,0,0-.01,0h0s-.09.05-.13.13c-.32.58-.46,3.02-.46,4.84v2.26c.27.97.91,3.22.96,3.35,0,0,.05.1.09.1h0Z" fill="url(#svc-AI-Foundry__uuid-a9b2ac78-bff0-475d-89df-2c97f2122f93)" /><path d="M16.01,5.46h-1.81c-1.21,0-2.17,1.09-2.17,2.11v3.87c0,.14-.04.24-.07.24s-.09-.1-.09-.1c0,0,.07.21.17.21h1.98c.62,0,2.48-.61,2.48-2.52v-3.25c0-.41-.24-.55-.49-.55Z" fill="url(#svc-AI-Foundry__uuid-03b3b70c-1c8d-4b3f-9935-d9da2b20de2f)" /><path d="M2.34,17h5.38c2.35,0,3.2-2.03,3.2-3.81v-7.23c0-2.08.19-4.97.61-4.97h-3.23c-.77,0-1.43.82-2.18,2.48-.75,1.66-4.36,11.87-4.52,12.36-.26.79-.02,1.16.74,1.16Z" fill="url(#svc-AI-Foundry__uuid-cabc8ec9-3293-44b8-a33b-70823f583b30)" /></symbol><symbol id="gen-Users" viewBox="0 0 18 18"><defs><linearGradient id="gen-Users__be92901b-ec33-4c65-adf1-9b0eed06d677" x1="9" y1="6.88" x2="9" y2="20.45" gradientUnits="userSpaceOnUse"><stop offset="0.22" stop-color="#32d4f5" /><stop offset="1" stop-color="#198ab3" /></linearGradient><linearGradient id="gen-Users__b46fc246-25d8-4398-8779-1042e8cacae7" x1="8.61" y1="-0.4" x2="9.6" y2="11.92" gradientUnits="userSpaceOnUse"><stop offset="0.22" stop-color="#32d4f5" /><stop offset="1" stop-color="#198ab3" /></linearGradient></defs><path d="M15.72,18a1.45,1.45,0,0,0,1.45-1.45.47.47,0,0,0,0-.17C16.59,11.81,14,8.09,9,8.09S1.34,11.24.83,16.39A1.46,1.46,0,0,0,2.14,18H15.72Z" fill="url(#gen-Users__be92901b-ec33-4c65-adf1-9b0eed06d677)" /><path d="M9,9.17a4.59,4.59,0,0,1-2.48-.73L9,14.86l2.44-6.38A4.53,4.53,0,0,1,9,9.17Z" fill="#fff" opacity="0.8" /><circle cx="9.01" cy="4.58" r="4.58" fill="url(#gen-Users__b46fc246-25d8-4398-8779-1042e8cacae7)" /></symbol><symbol id="svc-Entra-ID-Protection" viewBox="0 0 18 18"><defs><linearGradient id="svc-Entra-ID-Protection__uuid-10d303dc-dbc6-4fd6-9b51-4d2c7ef1af93" x1="10.901" y1="4.385" x2="10.901" y2="18.783" gradientUnits="userSpaceOnUse"><stop offset=".085" stop-color="#ef7100" /><stop offset=".999" stop-color="#f78d1e" /></linearGradient><linearGradient id="svc-Entra-ID-Protection__uuid-6bbe745f-b495-46ca-a7f6-6d49d57ee029" x1="-79.452" y1="778.657" x2="-79.452" y2="786.378" gradientTransform="translate(94 795.516) scale(1 -1)" gradientUnits="userSpaceOnUse"><stop offset="0" stop-color="#0078d4" /><stop offset=".06" stop-color="#0a7cd7" /><stop offset=".34" stop-color="#2e8ce1" /><stop offset=".59" stop-color="#4897e9" /><stop offset=".82" stop-color="#589eed" /><stop offset="1" stop-color="#5ea0ef" /></linearGradient></defs><g><polygon points="4.636 9.985 4.688 10.017 9 12.713 9.001 12.713 9.001 12.713 9.001 5.062 9 5.061 4.636 9.985" fill="#ffb34d" isolation="isolate" opacity=".9" stroke-width="0" /><path d="m10.146,1.294c-.299-.338-.722-.507-1.145-.507h0c-.424-.001-.847.168-1.147.506h-.001L.353,9.753c-.579.654-.428,1.642.323,2.111,0,0,2.776,1.735,3.126,1.954.388.242,1.033.511,1.715.511.621,0,1.198-.18,1.676-.487,0,0,0,0,.002,0l1.805-1.128-4.364-2.728,4.365-4.924.109-.123c.55-.627,1.377-1.026,2.302-1.026.472,0,.916.107,1.313.291l-2.579-2.909Z" fill="#faa21d" stroke-width="0" /><polygon points="13.365 9.985 13.365 9.985 13.365 9.985 9.001 5.062 9.001 12.712 13.365 9.985" fill="#f78d1e" stroke-width="0" /><path d="m17.647,9.753l-4.921-5.551c-.397-.185-.842-.291-1.313-.291-.925,0-1.752.399-2.302,1.026l-.109.123,4.364,4.924-4.266,2.666-.099.062v.003s-.001-.002-.001-.002l-1.805,1.128s-.002,0-.002,0c-.478.307-1.055.487-1.676.487-.682,0-1.327-.269-1.715-.511l4.374,2.734c.25.156.538.234.824.234h0s.001,0,.001,0c.287,0,.573-.078.823-.234l1.73-1.081h0s5.77-3.607,5.77-3.607h0c.751-.468.902-1.456.323-2.11Z" fill="url(#svc-Entra-ID-Protection__uuid-10d303dc-dbc6-4fd6-9b51-4d2c7ef1af93)" stroke-width="0" /></g><path d="m18,12.721c0,2.265-2.739,4.088-3.338,4.46-.068.044-.156.044-.224,0-.599-.367-3.338-2.19-3.338-4.46v-2.725c0-.119.093-.215.21-.218,2.134-.055,1.642-.991,3.241-.991s1.106.937,3.241.991c.117.003.21.1.21.218v2.725Z" fill="#0078d4" stroke-width="0" /><path d="m17.717,12.741c0,2.081-2.515,3.751-3.065,4.088-.063.039-.142.039-.205,0-.551-.337-3.065-2.007-3.065-4.088v-2.478c-.019-.111.054-.216.163-.235.011-.002.021-.003.032-.003,1.959-.035,1.511-.887,2.973-.887s1.014.852,2.973.887c.107.003.192.09.195.198v2.517Z" fill="url(#svc-Entra-ID-Protection__uuid-6bbe745f-b495-46ca-a7f6-6d49d57ee029)" stroke-width="0" /></symbol><symbol id="svc-API-Management-Services" viewBox="0 0 18 18"><defs><linearGradient id="svc-API-Management-Services__bf8a9583-aae9-48ff-87d8-fb8f44e7d6bd" x1="9" y1="16.82" x2="9" y2="1.18" gradientUnits="userSpaceOnUse"><stop offset="0" stop-color="#198ab3" /><stop offset="0.09" stop-color="#1f9dc4" /><stop offset="0.24" stop-color="#28b5d9" /><stop offset="0.4" stop-color="#2dc6e9" /><stop offset="0.57" stop-color="#31d1f2" /><stop offset="0.78" stop-color="#32d4f5" /></linearGradient><linearGradient id="svc-API-Management-Services__f9b1bb8c-728e-4abf-bce5-6c11ac170c5b" x1="8.36" y1="11.35" x2="8.36" y2="14.46" gradientUnits="userSpaceOnUse"><stop offset="0" stop-color="#c69aeb" /><stop offset="1" stop-color="#6f4bb2" /></linearGradient></defs><path d="M14.18,5.89A4.85,4.85,0,0,0,9.23,1.18,5,5,0,0,0,4.48,4.47,4.61,4.61,0,0,0,.5,9,4.67,4.67,0,0,0,5.29,13.5a3,3,0,0,0,.42,0h1.2a1.47,1.47,0,0,1-.11-.56v0A1.51,1.51,0,0,1,7,12.21H5.6l-.31,0A3.41,3.41,0,0,1,1.77,9,3.33,3.33,0,0,1,4.68,5.73l.76-.12.25-.73A3.73,3.73,0,0,1,9.23,2.45,3.6,3.6,0,0,1,12.91,5.9V7L14,7.15a2.59,2.59,0,0,1,2.26,2.49,2.63,2.63,0,0,1-2.62,2.54h-.15l-.08,0h-1A3.92,3.92,0,0,0,8.54,9a.64.64,0,1,0,0,1.27,2.65,2.65,0,0,1,0,5.29.64.64,0,1,0,0,1.27,3.92,3.92,0,0,0,3.87-3.34h1.05a.64.64,0,0,0,.2,0A3.91,3.91,0,0,0,17.5,9.64,3.86,3.86,0,0,0,14.18,5.89Z" fill="url(#svc-API-Management-Services__bf8a9583-aae9-48ff-87d8-fb8f44e7d6bd)" /><rect x="6.8" y="11.35" width="3.12" height="3.12" rx="1.54" fill="url(#svc-API-Management-Services__f9b1bb8c-728e-4abf-bce5-6c11ac170c5b)" /></symbol><symbol id="svc-App-Services" viewBox="0 0 18 18"><defs><radialGradient id="svc-App-Services__e2cf8746-c9a8-4eee-86c2-4951983c6032" cx="13428.81" cy="3518.86" r="56.67" gradientTransform="translate(-2005.33 -518.83) scale(0.15)" gradientUnits="userSpaceOnUse"><stop offset="0.18" stop-color="#5ea0ef" /><stop offset="1" stop-color="#0078d4" /></radialGradient><linearGradient id="svc-App-Services__bdd213dd-d313-473c-8ff4-0133fd3a9033" x1="4.4" y1="11.48" x2="4.37" y2="7.53" gradientUnits="userSpaceOnUse"><stop offset="0" stop-color="#ccc" /><stop offset="1" stop-color="#fcfcfc" /></linearGradient><linearGradient id="svc-App-Services__afcc63c5-3649-4476-a742-bcb53a569f3c" x1="10.13" y1="15.45" x2="10.13" y2="11.9" gradientUnits="userSpaceOnUse"><stop offset="0" stop-color="#ccc" /><stop offset="1" stop-color="#fcfcfc" /></linearGradient><linearGradient id="svc-App-Services__bd873f0b-9954-4aa5-a3df-9f4c64e8729d" x1="14.18" y1="11.15" x2="14.18" y2="7.38" gradientUnits="userSpaceOnUse"><stop offset="0" stop-color="#ccc" /><stop offset="1" stop-color="#fcfcfc" /></linearGradient></defs><path id="svc-App-Services__ee75dd06-1aca-4f76-9d11-d05a284020ad" d="M14.21,15.72A8.5,8.5,0,0,1,3.79,2.28l.09-.06a8.5,8.5,0,0,1,10.33,13.5" fill="url(#svc-App-Services__e2cf8746-c9a8-4eee-86c2-4951983c6032)" /><path d="M6.69,7.23A13,13,0,0,1,15.6,3.65a8.47,8.47,0,0,0-1.49-1.44,14.34,14.34,0,0,0-4.69,1.1A12.54,12.54,0,0,0,5.34,6.13,2.76,2.76,0,0,1,6.69,7.23Z" fill="#fff" opacity="0.6" /><path d="M2.48,10.65a17.86,17.86,0,0,0-.83,2.62,7.82,7.82,0,0,0,.62.92c.18.23.35.44.55.65A17.94,17.94,0,0,1,3.9,11.37,2.76,2.76,0,0,1,2.48,10.65Z" fill="#fff" opacity="0.6" /><path d="M3.46,6.11a12,12,0,0,1-.69-2.94,8.15,8.15,0,0,0-1.1,1.45A12.69,12.69,0,0,0,2.24,7,2.69,2.69,0,0,1,3.46,6.11Z" fill="#f2f2f2" opacity="0.55" /><circle cx="4.38" cy="8.68" r="2.73" fill="url(#svc-App-Services__bdd213dd-d313-473c-8ff4-0133fd3a9033)" /><path d="M8.36,13.67A1.77,1.77,0,0,1,8.9,12.4a11.88,11.88,0,0,1-2.53-1.86,2.74,2.74,0,0,1-1.49.83,13.1,13.1,0,0,0,1.45,1.28A12.12,12.12,0,0,0,8.38,13.9,1.79,1.79,0,0,1,8.36,13.67Z" fill="#f2f2f2" opacity="0.55" /><path d="M14.66,13.88a12,12,0,0,1-2.76-.32.41.41,0,0,1,0,.11,1.75,1.75,0,0,1-.51,1.24,13.69,13.69,0,0,0,3.42.24A8.21,8.21,0,0,0,16,13.81,11.5,11.5,0,0,1,14.66,13.88Z" fill="#f2f2f2" opacity="0.55" /><circle cx="10.13" cy="13.67" r="1.78" fill="url(#svc-App-Services__afcc63c5-3649-4476-a742-bcb53a569f3c)" /><path d="M12.32,8.93a1.83,1.83,0,0,1,.61-1A25.5,25.5,0,0,1,8.47,3.79a16.91,16.91,0,0,1-2-2.92,7.64,7.64,0,0,0-1.09.42A18.14,18.14,0,0,0,7.53,4.47,26.44,26.44,0,0,0,12.32,8.93Z" fill="#f2f2f2" opacity="0.7" /><circle cx="14.18" cy="9.27" r="1.89" fill="url(#svc-App-Services__bd873f0b-9954-4aa5-a3df-9f4c64e8729d)" /><path d="M17.35,10.54,17,10.37l0,0-.3-.16-.06,0L16.38,10l-.07,0L16,9.8a1.76,1.76,0,0,1-.64.92c.12.08.25.15.38.22l.08.05.35.19,0,0,.86.45h0a8.63,8.63,0,0,0,.29-1.11Z" fill="#f2f2f2" opacity="0.55" /><circle cx="4.38" cy="8.68" r="2.73" fill="url(#svc-App-Services__bdd213dd-d313-473c-8ff4-0133fd3a9033)" /><circle cx="10.13" cy="13.67" r="1.78" fill="url(#svc-App-Services__afcc63c5-3649-4476-a742-bcb53a569f3c)" /></symbol><symbol id="svc-Content-Safety" viewBox="0 0 18 18"><defs><linearGradient id="svc-Content-Safety__uuid-80fd62f5-d182-4403-8456-6923e7e033bb" x1="7.997" y1="14.863" x2="7.997" y2="2.057" gradientUnits="userSpaceOnUse"><stop offset="0" stop-color="#0078d4" /><stop offset=".82" stop-color="#5ea0ef" /></linearGradient><linearGradient id="svc-Content-Safety__uuid-f6289940-e1be-4e56-904f-ba5a1586dc17" x1="-558.124" y1="1021.188" x2="-558.124" y2="1019.083" gradientTransform="translate(564 1025.516) scale(1 -1)" gradientUnits="userSpaceOnUse"><stop offset="0" stop-color="#fff" stop-opacity=".7" /><stop offset="1" stop-color="#fff" stop-opacity=".6" /></linearGradient></defs><path d="m.362,3.138C.162,3.138,0,2.976,0,2.777h0V.361C0,.162.162,0,.362,0h2.266c.2,0,.362.162.362.361,0,.199-.162.361-.362.361H.724v2.053c0,.199-.161.362-.361.362,0,0,0,0-.001,0Zm17.638-.361V.361C18,.162,17.838,0,17.638,0h-2.266c-.2,0-.362.162-.362.361s.162.361.362.361h1.904v2.053c0,.199.162.361.362.361.2,0,.361-.162.362-.361h0ZM2.99,17.639c0-.199-.162-.361-.362-.361H.724v-2.053c0-.199-.162-.361-.362-.361-.2,0-.362.162-.362.361v2.415c0,.199.163.36.362.36h2.266c.2,0,.362-.162.362-.361Zm15.01.001v-2.415c0-.199-.162-.361-.362-.361-.2,0-.361.162-.362.361v2.053h-1.904c-.2,0-.362.162-.362.362,0,.199.162.361.362.361h2.266c.199,0,.361-.161.362-.36Z" fill="#76bc2d" /><g><path d="m13.864,8.047c0,3.822-4.627,6.907-5.632,7.544-.12.066-.265.066-.386,0-1.073-.687-5.716-3.772-5.716-7.544V3.386c0-.197.155-.36.352-.369,3.604-.101,2.783-1.676,5.482-1.676s1.861,1.576,5.465,1.676c.197.009.352.171.352.369l.084,4.66Z" fill="#0078d4" /><path d="m8.04,14.863c-4.683-3.064-5.194-5.781-5.194-6.816V3.719c1.873-.106,2.625-.637,3.236-1.068.489-.345.843-.594,1.881-.594s1.387.249,1.872.593c.607.431,1.355.962,3.235,1.069l.078,4.34c0,.817-.372,3.733-5.109,6.804Z" fill="url(#svc-Content-Safety__uuid-80fd62f5-d182-4403-8456-6923e7e033bb)" /></g><g><rect x="8.155" y="4.328" width="3.721" height=".691" rx=".141" ry=".141" fill="#fff" opacity=".7" /><rect x="8.155" y="5.742" width="3.721" height=".691" rx=".141" ry=".141" fill="#fff" opacity=".6" /><rect x="4.117" y="9.983" width="4.472" height=".691" rx=".141" ry=".141" fill="#fff" opacity=".3" /><rect x="4.117" y="8.57" width="7.76" height=".691" rx=".141" ry=".141" fill="#fff" opacity=".4" /><rect x="4.117" y="7.156" width="7.076" height=".691" rx=".14" ry=".14" fill="#fff" opacity=".5" /><g id="svc-Content-Safety__uuid-69ff294d-4d54-4881-9832-ea140e19e0d2"><path d="m4.235,4.328h3.282c.065,0,.118.046.118.102v1.901c0,.057-.053.102-.118.102h-3.282c-.065,0-.118-.046-.118-.102v-1.901c0-.057.053-.102.118-.102Z" fill="url(#svc-Content-Safety__uuid-f6289940-e1be-4e56-904f-ba5a1586dc17)" /></g></g><g><circle cx="12.449" cy="13.203" r="3.442" fill="#76bc2d" /><g><path d="m12.096,14.356l-.316.316c-.054.054-.141.054-.195,0h0l-1.256-1.256c-.054-.054-.054-.141,0-.195h0l.219-.219c.054-.054.141-.054.195,0h0l1.353,1.353h0Z" fill="#fff" /><path d="m11.591,14.676l-.316-.316h0l2.888-2.888c.054-.054.141-.054.195,0h0l.219.219c.054.054.054.141,0,.195h0l-2.791,2.791c-.054.054-.141.054-.195,0h0Z" fill="#f0f0f0" /></g></g></symbol><symbol id="svc-Azure-OpenAI" viewBox="0 0 18 18"><defs><radialGradient id="svc-Azure-OpenAI__uuid-2a7407aa-b787-48dd-a96a-0d81ab6e93bb" cx="-67.981" cy="793.199" r=".45" gradientTransform="translate(-17939.03 20368.029) rotate(45) scale(25.091 -34.149)" gradientUnits="userSpaceOnUse"><stop offset="0" stop-color="#83b9f9" /><stop offset="1" stop-color="#0078d4" /></radialGradient></defs><path d="m0,2.7v12.6c0,1.491,1.209,2.7,2.7,2.7h12.6c1.491,0,2.7-1.209,2.7-2.7V2.7c0-1.491-1.209-2.7-2.7-2.7H2.7C1.209,0,0,1.209,0,2.7ZM10.8,0v3.6c0,3.976,3.224,7.2,7.2,7.2h-3.6c-3.976,0-7.199,3.222-7.2,7.198v-3.598c0-3.976-3.224-7.2-7.2-7.2h3.6c3.976,0,7.2-3.224,7.2-7.2Z" fill="url(#svc-Azure-OpenAI__uuid-2a7407aa-b787-48dd-a96a-0d81ab6e93bb)" stroke-width="0" /></symbol><symbol id="svc-Cognitive-Search" viewBox="0 0 18 18"><defs><linearGradient id="svc-Cognitive-Search__b198f9ad-224e-4f37-99bb-f1c5a20d3916" x1="9" y1="0.36" x2="9" y2="18.31" gradientUnits="userSpaceOnUse"><stop offset="0.18" stop-color="#5ea0ef" /><stop offset="1" stop-color="#0078d4" /></linearGradient></defs><path d="M18,11.32a4.12,4.12,0,0,0-3.51-4,5.15,5.15,0,0,0-5.25-5,5.25,5.25,0,0,0-5,3.49A4.86,4.86,0,0,0,0,10.59a5,5,0,0,0,5.07,4.82l.44,0h8.21a.78.78,0,0,0,.22,0A4.13,4.13,0,0,0,18,11.32Z" fill="url(#svc-Cognitive-Search__b198f9ad-224e-4f37-99bb-f1c5a20d3916)" /><path d="M12.33,6.59a3.07,3.07,0,0,0-5.61.85,3.16,3.16,0,0,0,.33,2.27L4.71,12.08a.79.79,0,0,0,0,1.12.78.78,0,0,0,.56.23.76.76,0,0,0,.56-.23l2.33-2.36a3.14,3.14,0,0,0,.81.33,3.08,3.08,0,0,0,3.36-4.58Zm-.54,2.1A2.16,2.16,0,0,1,9.7,10.34a1.79,1.79,0,0,1-.51-.07,1.87,1.87,0,0,1-.7-.32,2.13,2.13,0,0,1-.56-.56,2.17,2.17,0,0,1-.31-1.73A2.14,2.14,0,0,1,9.7,6a2.31,2.31,0,0,1,.52.06,2.18,2.18,0,0,1,1.32,1A2.13,2.13,0,0,1,11.79,8.69Z" fill="#f2f2f2" /><ellipse cx="9.69" cy="8.18" rx="2.15" ry="2.16" fill="#83b9f9" /></symbol><symbol id="svc-Storage-Accounts" viewBox="0 0 18 18"><defs><linearGradient id="svc-Storage-Accounts__ad4c4f96-09aa-4f91-ba10-5cb8ad530f74" x1="9" y1="15.83" x2="9" y2="5.79" gradientUnits="userSpaceOnUse"><stop offset="0" stop-color="#b3b3b3" /><stop offset="0.26" stop-color="#c1c1c1" /><stop offset="1" stop-color="#e6e6e6" /></linearGradient></defs><path d="M.5,5.79h17a0,0,0,0,1,0,0v9.48a.57.57,0,0,1-.57.57H1.07a.57.57,0,0,1-.57-.57V5.79A0,0,0,0,1,.5,5.79Z" fill="url(#svc-Storage-Accounts__ad4c4f96-09aa-4f91-ba10-5cb8ad530f74)" /><path d="M1.07,2.17H16.93a.57.57,0,0,1,.57.57V5.79a0,0,0,0,1,0,0H.5a0,0,0,0,1,0,0V2.73A.57.57,0,0,1,1.07,2.17Z" fill="#37c2b1" /><path d="M2.81,6.89H15.18a.27.27,0,0,1,.26.27v1.4a.27.27,0,0,1-.26.27H2.81a.27.27,0,0,1-.26-.27V7.16A.27.27,0,0,1,2.81,6.89Z" fill="#fff" /><path d="M2.82,9.68H15.19a.27.27,0,0,1,.26.27v1.41a.27.27,0,0,1-.26.27H2.82a.27.27,0,0,1-.26-.27V10A.27.27,0,0,1,2.82,9.68Z" fill="#37c2b1" /><path d="M2.82,12.5H15.19a.27.27,0,0,1,.26.27v1.41a.27.27,0,0,1-.26.27H2.82a.27.27,0,0,1-.26-.27V12.77A.27.27,0,0,1,2.82,12.5Z" fill="#258277" /></symbol><symbol id="svc-Log-Analytics-Workspaces" viewBox="0 0 18 18"><defs><linearGradient id="svc-Log-Analytics-Workspaces__a997e203-1d7d-4cb9-b131-5dc44e029b46" x1="5.23" y1="17.45" x2="5.23" y2="8.09" gradientUnits="userSpaceOnUse"><stop offset="0" stop-color="#1988d9" /><stop offset="0.9" stop-color="#54aef0" /></linearGradient><linearGradient id="svc-Log-Analytics-Workspaces__e122e9d8-aee5-4f1a-a60e-b1eae355daa5" x1="11.5" y1="12.45" x2="11.5" y2="0.55" gradientUnits="userSpaceOnUse"><stop offset="0" stop-color="#198ab3" /><stop offset="0.01" stop-color="#198bb4" /><stop offset="0.44" stop-color="#27b2d7" /><stop offset="0.79" stop-color="#2fcbed" /><stop offset="1" stop-color="#32d4f5" /></linearGradient></defs><path d="M5.59,13.13H9.91v4.32H5.59ZM1.15,17.45H4.87V13.13H.55v3.72A.6.6,0,0,0,1.15,17.45Zm-.6-5H4.87V8.09H.55Z" fill="url(#svc-Log-Analytics-Workspaces__a997e203-1d7d-4cb9-b131-5dc44e029b46)" /><path d="M11.5.55a5.89,5.89,0,0,1,5.95,6,5.89,5.89,0,0,1-5.95,5.95H5.55V6.5A5.89,5.89,0,0,1,11.5.55Z" fill-rule="evenodd" fill="url(#svc-Log-Analytics-Workspaces__e122e9d8-aee5-4f1a-a60e-b1eae355daa5)" /><rect x="7.59" y="5.65" width="1.36" height="4.08" fill="#fff" /><rect x="10.31" y="7.01" width="1.36" height="2.72" fill="#fff" /><rect x="13.03" y="4.29" width="1.36" height="5.44" fill="#fff" /></symbol><symbol id="svc-Key-Vaults" viewBox="0 0 18 18"><defs><radialGradient id="svc-Key-Vaults__fb114c93-7c16-4540-899a-0796041629e6" cx="9" cy="9" r="8.5" gradientUnits="userSpaceOnUse"><stop offset="0.18" stop-color="#5ea0ef" /><stop offset="0.56" stop-color="#5c9fee" /><stop offset="0.69" stop-color="#559ced" /><stop offset="0.78" stop-color="#4a97e9" /><stop offset="0.86" stop-color="#3990e4" /><stop offset="0.93" stop-color="#2387de" /><stop offset="0.99" stop-color="#087bd6" /><stop offset="1" stop-color="#0078d4" /></radialGradient><radialGradient id="svc-Key-Vaults__ec478bd3-5b38-4e7f-b661-11f355578bff" cx="38.95" cy="182.07" r="9.88" gradientTransform="translate(-28.71 -163.24) scale(0.94 0.94)" gradientUnits="userSpaceOnUse"><stop offset="0.27" stop-color="#ffd70f" /><stop offset="0.49" stop-color="#ffcb12" /><stop offset="0.88" stop-color="#feac19" /><stop offset="1" stop-color="#fea11b" /></radialGradient></defs><path id="svc-Key-Vaults__aacf8311-a317-400f-b613-74bd00da5ce3" d="M9,.5A8.5,8.5,0,1,0,17.5,9,8.51,8.51,0,0,0,9,.5ZM9,16.34A7.34,7.34,0,1,1,16.34,9,7.34,7.34,0,0,1,9,16.34Z" fill="url(#svc-Key-Vaults__fb114c93-7c16-4540-899a-0796041629e6)" /><circle cx="9" cy="9" r="7.34" fill="#fff" /><g><path id="svc-Key-Vaults__bd983c41-db73-40ec-a4f4-da1213fc9924" d="M13.44,7.33a1.84,1.84,0,0,0,0-2.59h0L10.29,1.58a1.83,1.83,0,0,0-2.58,0h0L4.56,4.74a1.84,1.84,0,0,0,0,2.59L7.18,10a.51.51,0,0,1,.15.36v4.88a.63.63,0,0,0,.18.44l1.2,1.2a.41.41,0,0,0,.58,0l1.16-1.16h0l.68-.68a.25.25,0,0,0,0-.34l-.49-.49a.27.27,0,0,1,0-.37l.49-.49a.25.25,0,0,0,0-.34l-.49-.49a.27.27,0,0,1,0-.37l.49-.49a.25.25,0,0,0,0-.34l-.68-.69v-.25ZM9,2.35A1,1,0,0,1,9,4.42,1,1,0,1,1,9,2.35Z" fill="url(#svc-Key-Vaults__ec478bd3-5b38-4e7f-b661-11f355578bff)" /><path id="svc-Key-Vaults__ad2e7e44-9bfd-4775-8bf4-8ef26a544921" d="M8.18,15.3h0a.23.23,0,0,0,.38-.17v-4a.24.24,0,0,0-.11-.2h0a.22.22,0,0,0-.34.2v4A.28.28,0,0,0,8.18,15.3Z" fill="#ff9300" opacity="0.75" /><rect id="svc-Key-Vaults__a996fbff-3936-4b24-b407-369336c143ba" x="6.48" y="5.79" width="5.17" height="0.61" rx="0.28" fill="#ff9300" opacity="0.75" /><rect id="svc-Key-Vaults__bb12d31c-3352-4a18-87dd-a169a4a8721d" x="6.48" y="6.78" width="5.17" height="0.61" rx="0.28" fill="#ff9300" opacity="0.75" /></g></symbol></defs>
<rect class="bg" width="1345" height="820"/>
<text class="title" x="40" y="46">RAG chat assistant on Azure OpenAI</text>
<text class="subtitle" x="40" y="70">Authenticated API → orchestrator → content-safe model call grounded by Azure AI Search, with diagnostic logging</text>
<g class="group" data-id="cloud" data-label="Azure">
<rect x="216" y="116" width="1089" height="664" fill="none" stroke="#243A5E" stroke-width="1.25" data-fill-light="none" data-fill-dark="none" class="grect"/>
<text class="glabel" x="226" y="136">Azure</text>
</g>
<g class="group" data-id="region" data-label="Region">
<rect x="444" y="164" width="615" height="592" fill="none" stroke="#0078D4" stroke-width="1.25" stroke-dasharray="2 3" data-fill-light="none" data-fill-dark="none" class="grect"/>
<use href="#grp-Region" x="444" y="164" width="32" height="32"/>
<text class="glabel" x="484" y="185">Region</text>
</g>
<g class="group" data-id="ai" data-label="Azure AI">
<rect x="654" y="212" width="190" height="520" fill="none" stroke="#0078D4" stroke-width="1.25" data-fill-light="none" data-fill-dark="none" class="grect"/>
<use href="#svc-AI-Foundry" x="654" y="212" width="32" height="32"/>
<text class="glabel" x="694" y="233">Azure AI</text>
</g>
<g class="edge" data-from="orch" data-to="fm" data-step="5" data-label="grounded prompt" data-tip="App Service → Azure OpenAI (grounded prompt)">
<path d="M548 460 L717 460" fill="none" class="eline" stroke-width="2" marker-end="url(#arw)"/>
<text class="elabel" x="632.5" y="452" text-anchor="middle">grounded prompt</text>
<g class="badge"><title>5. App Service → Azure OpenAI (grounded prompt)</title><circle cx="612" cy="460" r="11"/><circle class="hit" cx="612" cy="460" r="16"/><text x="612" y="464.5" text-anchor="middle">5</text></g>
</g>
<g class="edge" data-from="idp" data-to="apim" data-step="" data-label="validates">
<path d="M302 456 L302 512" fill="none" class="eline" stroke-width="2" stroke-dasharray="6 4" marker-end="url(#arw)"/>
<text class="elabel" x="320" y="488" text-anchor="start">validates</text>
</g>
<g class="edge" data-from="users" data-to="apim" data-step="1" data-label="HTTPS + token" data-tip="Users → API Management (HTTPS + token)">
<path d="M120 460 L195 460 L195 544 L270 544" fill="none" class="eline" stroke-width="2" marker-end="url(#arw)"/>
<text class="elabel" x="213" y="506" text-anchor="start">HTTPS + token</text>
<g class="badge"><title>1. Users → API Management (HTTPS + token)</title><circle cx="144" cy="460" r="11"/><circle class="hit" cx="144" cy="460" r="16"/><text x="144" y="464.5" text-anchor="middle">1</text></g>
</g>
<g class="edge" data-from="apim" data-to="orch" data-step="2" data-label="" data-tip="API Management → App Service">
<path d="M334 544 L409 544 L409 460 L484 460" fill="none" class="eline" stroke-width="2" marker-end="url(#arw)"/>
<g class="badge"><title>2. API Management → App Service</title><circle cx="358" cy="544" r="11"/><circle class="hit" cx="358" cy="544" r="16"/><text x="358" y="548.5" text-anchor="middle">2</text></g>
</g>
<g class="edge" data-from="orch" data-to="safety" data-step="3" data-label="screen prompt" data-tip="App Service → Azure AI Content Safety (screen prompt)">
<path d="M516 428 L516 292 L717 292" fill="none" class="eline" stroke-width="2" marker-end="url(#arw)"/>
<text class="elabel" x="616.5" y="284" text-anchor="middle">screen prompt</text>
<g class="badge"><title>3. App Service → Azure AI Content Safety (screen prompt)</title><circle cx="516" cy="404" r="11"/><circle class="hit" cx="516" cy="404" r="16"/><text x="516" y="408.5" text-anchor="middle">3</text></g>
</g>
<g class="edge" data-from="orch" data-to="search" data-step="4" data-label="retrieve" data-tip="App Service → Azure AI Search (retrieve)">
<path d="M548 460 L584.5 460 L584.5 628 L717 628" fill="none" class="eline" stroke-width="2" marker-end="url(#arw)"/>
<text class="elabel" x="602.5" y="548" text-anchor="start">retrieve</text>
<g class="badge"><title>4. App Service → Azure AI Search (retrieve)</title><circle cx="693" cy="628" r="11"/><circle class="hit" cx="693" cy="628" r="16"/><text x="693" y="632.5" text-anchor="middle">4</text></g>
</g>
<g class="edge" data-from="search" data-to="docs" data-step="" data-label="indexer">
<path d="M781 628 L866.75 628 L866.75 460 L952.5 460" fill="none" class="eline" stroke-width="2" stroke-dasharray="6 4" marker-end="url(#arw)"/>
<text class="elabel" x="884.75" y="548" text-anchor="start">indexer</text>
</g>
<g class="edge" data-from="fm" data-to="mon" data-step="" data-label="diagnostics">
<path d="M749 428 L749 376 L1178 376" fill="none" class="eline" stroke-width="2" stroke-dasharray="6 4" marker-end="url(#arw)"/>
<text class="elabel" x="963.5" y="368" text-anchor="middle">diagnostics</text>
</g>
<g class="node" data-id="users" data-label="Users" data-service="Users" data-category="General"><title>Users (Users)</title>
<use href="#gen-Users" x="56" y="428" width="64" height="64"/>
<text class="nlabel" x="88" y="509" text-anchor="middle">Users</text>
</g>
<g class="node" data-id="idp" data-label="Microsoft Entra ID" data-service="Entra ID Protection" data-category="identity"><title>Microsoft Entra ID (Entra ID Protection)</title>
<use href="#svc-Entra-ID-Protection" x="270" y="344" width="64" height="64"/>
<text class="nlabel" x="302" y="425" text-anchor="middle">Microsoft Entra ID</text>
<text class="nsub" x="302" y="439" text-anchor="middle">sign-in, RBAC</text>
</g>
<g class="node" data-id="apim" data-label="API Management" data-service="API Management Services" data-category="web"><title>API Management (API Management Services)</title>
<use href="#svc-API-Management-Services" x="270" y="512" width="64" height="64"/>
<text class="nlabel" x="302" y="593" text-anchor="middle">API Management</text>
<text class="nsub" x="302" y="607" text-anchor="middle">auth, throttling</text>
</g>
<g class="node" data-id="orch" data-label="App Service" data-service="App Services" data-category="compute"><title>App Service (App Services)</title>
<use href="#svc-App-Services" x="484" y="428" width="64" height="64"/>
<text class="nlabel" x="516" y="509" text-anchor="middle">App Service</text>
<text class="nsub" x="516" y="523" text-anchor="middle">orchestrator</text>
</g>
<g class="node" data-id="safety" data-label="Azure AI Content Safety" data-service="Content Safety" data-category="ai-machine-learning"><title>Azure AI Content Safety (Content Safety)</title>
<use href="#svc-Content-Safety" x="717" y="260" width="64" height="64"/>
<text class="nlabel" x="749" y="341" text-anchor="middle">Azure AI Content</text>
<text class="nlabel" x="749" y="355" text-anchor="middle">Safety</text>
<text class="nsub" x="749" y="369" text-anchor="middle">filters, prompt shields</text>
</g>
<g class="node" data-id="fm" data-label="Azure OpenAI" data-service="Azure OpenAI" data-category="ai-machine-learning"><title>Azure OpenAI (Azure OpenAI)</title>
<use href="#svc-Azure-OpenAI" x="717" y="428" width="64" height="64"/>
<text class="nlabel" x="749" y="509" text-anchor="middle">Azure OpenAI</text>
<text class="nsub" x="749" y="523" text-anchor="middle">chat + embeddings</text>
</g>
<g class="node" data-id="search" data-label="Azure AI Search" data-service="Cognitive Search" data-category="web"><title>Azure AI Search (Cognitive Search)</title>
<use href="#svc-Cognitive-Search" x="717" y="596" width="64" height="64"/>
<text class="nlabel" x="749" y="677" text-anchor="middle">Azure AI Search</text>
<text class="nsub" x="749" y="691" text-anchor="middle">vector + keyword index</text>
</g>
<g class="node" data-id="docs" data-label="Azure Storage" data-service="Storage Accounts" data-category="storage"><title>Azure Storage (Storage Accounts)</title>
<use href="#svc-Storage-Accounts" x="952.5" y="428" width="64" height="64"/>
<text class="nlabel" x="984.5" y="509" text-anchor="middle">Azure Storage</text>
<text class="nsub" x="984.5" y="523" text-anchor="middle">source documents</text>
</g>
<g class="node" data-id="mon" data-label="Log Analytics" data-service="Log Analytics Workspaces" data-category="analytics"><title>Log Analytics (Log Analytics Workspaces)</title>
<use href="#svc-Log-Analytics-Workspaces" x="1178" y="344" width="64" height="64"/>
<text class="nlabel" x="1210" y="425" text-anchor="middle">Log Analytics</text>
<text class="nsub" x="1210" y="439" text-anchor="middle">diagnostic logs, tokens</text>
</g>
<g class="node" data-id="kv" data-label="Azure Key Vault" data-service="Key Vaults" data-category="security"><title>Azure Key Vault (Key Vaults)</title>
<use href="#svc-Key-Vaults" x="1178" y="512" width="64" height="64"/>
<text class="nlabel" x="1210" y="593" text-anchor="middle">Azure Key Vault</text>
</g>
</svg>